<svg xmlns="http://www.w3.org/2000/svg" xmlns:xlink="http://www.w3.org/1999/xlink" viewBox="0,0,256,256" width="48px" height="48px"><g fill="none" fill-rule="nonzero" stroke="none" stroke-width="none" stroke-linecap="none" stroke-linejoin="none" stroke-miterlimit="10" stroke-dasharray="" stroke-dashoffset="0" font-family="none" font-weight="none" font-size="none" text-anchor="none" style="mix-blend-mode: normal"><g transform="scale(5.33333,5.33333)"><path d="M14.149,18.39l2.66,24.823c0.108,1.016 0.966,1.787 1.988,1.787h18.405c1.022,0 1.879,-0.771 1.988,-1.787l2.661,-24.823c0.077,-0.72 -0.487,-1.348 -1.211,-1.348h-25.28c-0.724,0.001 -1.288,0.628 -1.211,1.348z" fill="#fa5252" stroke="none" stroke-width="1" stroke-linecap="butt" stroke-linejoin="miter"></path><path d="M36.249,29.839l1.751,-16.339" fill="none" stroke="#18193f" stroke-width="3" stroke-linecap="round" stroke-linejoin="round"></path><path d="M10.608,19.171l2.009,18.755c0.218,2.033 1.933,3.574 3.977,3.574h14.811c2.044,0 3.759,-1.541 3.977,-3.574l0.373,-3.48" fill="none" stroke="#18193f" stroke-width="3" stroke-linecap="round" stroke-linejoin="round"></path><path d="M7.5,13.5h33" fill="none" stroke="#18193f" stroke-width="3" stroke-linecap="round" stroke-linejoin="round"></path><path d="M20.5,5.5h7" fill="none" stroke="#18193f" stroke-width="3" stroke-linecap="round" stroke-linejoin="round"></path><path d="M10,13.5l2.813,-4.219c0.741,-1.113 1.99,-1.781 3.328,-1.781h15.719c1.337,0 2.586,0.668 3.328,1.781l2.812,4.219" fill="none" stroke="#18193f" stroke-width="3" stroke-linecap="round" stroke-linejoin="round"></path></g></g></svg>